<svg width="400" height="300" viewBox="0 0 400 300" xmlns="http://www.w3.org/2000/svg">
  <defs>
    <linearGradient id="metalGradient" x1="0%" y1="0%" x2="100%" y2="100%">
      <stop offset="0%" stop-color="#c0c0c0" />
      <stop offset="50%" stop-color="#e0e0e0" />
      <stop offset="100%" stop-color="#a0a0a0" />
    </linearGradient>
    <linearGradient id="skyGradient" x1="0%" y1="0%" x2="0%" y2="100%">
      <stop offset="0%" stop-color="#0ea5e9" />
      <stop offset="100%" stop-color="#7dd3fc" />
    </linearGradient>
    <filter id="glow" x="-20%" y="-20%" width="140%" height="140%">
      <feGaussianBlur stdDeviation="2" result="blur" />
      <feComposite in="SourceGraphic" in2="blur" operator="over" />
    </filter>
  </defs>
  
  <!-- Background -->
  <rect width="400" height="300" fill="#f9fafb" rx="10" />
  
  <!-- Sky background -->
  <rect x="20" y="20" width="360" height="160" fill="url(#skyGradient)" rx="5" />
  
  <!-- Clouds -->
  <ellipse cx="60" cy="60" rx="25" ry="15" fill="#fff" opacity="0.8" />
  <ellipse cx="80" cy="55" rx="20" ry="12" fill="#fff" opacity="0.8" />
  <ellipse cx="40" cy="65" rx="15" ry="10" fill="#fff" opacity="0.8" />
  
  <ellipse cx="280" cy="40" rx="30" ry="15" fill="#fff" opacity="0.6" />
  <ellipse cx="300" cy="45" rx="20" ry="10" fill="#fff" opacity="0.6" />
  <ellipse cx="260" cy="35" rx="15" ry="8" fill="#fff" opacity="0.6" />
  
  <!-- Airplane silhouette -->
  <g transform="translate(250, 100) scale(0.8) rotate(-10)">
    <!-- Fuselage -->
    <path d="M -60,0 L 60,0 C 70,0 75,5 75,10 L 60,15 L -60,15 L -70,10 C -70,5 -65,0 -60,0 Z" fill="#fff" stroke="#666" stroke-width="1" />
    
    <!-- Cockpit windows -->
    <path d="M 50,5 L 60,5 L 60,10 L 50,10 Z" fill="#0ea5e9" stroke="#666" stroke-width="0.5" />
    
    <!-- Wings -->
    <path d="M -20,15 L 20,15 L 30,40 L -30,40 Z" fill="#fff" stroke="#666" stroke-width="1" />
    
    <!-- Tail -->
    <path d="M -60,15 L -40,15 L -50,35 L -65,30 Z" fill="#fff" stroke="#666" stroke-width="1" />
    
    <!-- Engine -->
    <rect x="-10" y="40" width="20" height="10" rx="2" fill="#666" />
    <ellipse cx="0" cy="50" rx="10" ry="5" fill="#555" />
  </g>
  
  <!-- Turbine component -->
  <g transform="translate(140, 210)">
    <!-- Base disc -->
    <circle cx="0" cy="0" r="40" fill="url(#metalGradient)" stroke="#333" stroke-width="1" />
    <circle cx="0" cy="0" r="10" fill="#666" stroke="#333" stroke-width="1" />
    
    <!-- Turbine blades -->
    <g id="blade">
      <path d="M 10,0 L 25,-5 L 40,-2 L 38,2 L 25,5 Z" fill="url(#metalGradient)" stroke="#333" stroke-width="0.5" />
    </g>
    <use href="#blade" transform="rotate(30)" />
    <use href="#blade" transform="rotate(60)" />
    <use href="#blade" transform="rotate(90)" />
    <use href="#blade" transform="rotate(120)" />
    <use href="#blade" transform="rotate(150)" />
    <use href="#blade" transform="rotate(180)" />
    <use href="#blade" transform="rotate(210)" />
    <use href="#blade" transform="rotate(240)" />
    <use href="#blade" transform="rotate(270)" />
    <use href="#blade" transform="rotate(300)" />
    <use href="#blade" transform="rotate(330)" />
  </g>
  
  <!-- MPI inspection process (simplified visualization) -->
  <g transform="translate(260, 210)">
    <!-- MPI equipment outline -->
    <rect x="-40" y="-30" width="80" height="60" rx="5" fill="#333" stroke="#222" stroke-width="1" />
    
    <!-- Display screen -->
    <rect x="-30" y="-20" width="40" height="25" rx="2" fill="#1e3a8a" />
    <rect x="-25" y="-15" width="30" height="15" rx="1" fill="#0c4a6e" />
    
    <!-- Controls -->
    <circle cx="25" cy="-10" r="5" fill="#f43f5e" />
    <circle cx="25" cy="10" r="5" fill="#22c55e" />
    
    <!-- Magnetic field visualization (glowing lines) -->
    <path d="M -40,-5 C -80,-30 -80,30 -40,5" stroke="#3b82f6" stroke-width="2" fill="none" opacity="0.6" filter="url(#glow)" />
    <path d="M -40,5 C -80,30 -80,-30 -40,-5" stroke="#3b82f6" stroke-width="2" fill="none" opacity="0.6" filter="url(#glow)" />
  </g>
  
  <!-- Branding/Title -->
  <text x="200" y="270" font-family="Arial, sans-serif" font-size="16" font-weight="bold" text-anchor="middle" fill="#1e3a8a">Aerospace Industry Applications</text>
</svg> 